<?xml version="1.0" encoding="utf-8"?>
<!-- Generator: Adobe Illustrator 23.0.1, SVG Export Plug-In . SVG Version: 6.00 Build 0)  -->
<svg version="1.1" id="Capa_1" xmlns="http://www.w3.org/2000/svg" xmlns:xlink="http://www.w3.org/1999/xlink" x="0px" y="0px"
	 viewBox="0 0 375.1 375.1" style="enable-background:new 0 0 375.1 375.1;" xml:space="preserve">
<style type="text/css">
	.st0{fill:url(#SVGID_1_);}
	.st1{fill:url(#SVGID_2_);}
	.st2{fill:url(#SVGID_3_);}
	.st3{fill:url(#SVGID_4_);}
</style>
<g>
	<g>
		<g>
			<linearGradient id="SVGID_1_" gradientUnits="userSpaceOnUse" x1="187.5945" y1="218.936" x2="187.5945" y2="375.148">
				<stop  offset="4.469206e-03" style="stop-color:#25A5E2"/>
				<stop  offset="1" style="stop-color:#5821C1"/>
			</linearGradient>
			<path class="st0" d="M222.1,218.9h-69c-5.8,0-10.4,4.7-10.4,10.4v135.3c0,5.8,4.7,10.4,10.4,10.4h69c5.8,0,10.4-4.7,10.4-10.4
				V229.4C232.5,223.6,227.8,218.9,222.1,218.9z M211.6,354.3h-48.1V239.8h48.1V354.3z"/>
			<linearGradient id="SVGID_2_" gradientUnits="userSpaceOnUse" x1="324.215" y1="136.911" x2="324.215" y2="375.148">
				<stop  offset="4.469206e-03" style="stop-color:#25A5E2"/>
				<stop  offset="1" style="stop-color:#5821C1"/>
			</linearGradient>
			<path class="st1" d="M359,136.9h-69.5c-5.8,0-10.4,4.7-10.4,10.4v217.3c0,5.8,4.7,10.4,10.4,10.4H359c5.8,0,10.4-4.7,10.4-10.4
				V147.4C369.4,141.6,364.7,136.9,359,136.9z M348.5,354.3h-48.6V157.8h48.6V354.3z"/>
			<linearGradient id="SVGID_3_" gradientUnits="userSpaceOnUse" x1="50.974" y1="269.613" x2="50.974" y2="375.148">
				<stop  offset="4.469206e-03" style="stop-color:#25A5E2"/>
				<stop  offset="1" style="stop-color:#5821C1"/>
			</linearGradient>
			<path class="st2" d="M85.7,269.6H16.2c-5.8,0-10.4,4.7-10.4,10.4v84.6c0,5.8,4.7,10.4,10.4,10.4h69.5c5.8,0,10.4-4.7,10.4-10.4
				v-84.6C96.2,274.3,91.5,269.6,85.7,269.6z M75.3,354.3H26.7v-63.7h48.6C75.3,290.5,75.3,354.3,75.3,354.3z"/>
			<linearGradient id="SVGID_4_" gradientUnits="userSpaceOnUse" x1="187.5743" y1="1.451111e-04" x2="187.5743" y2="159.907">
				<stop  offset="4.469206e-03" style="stop-color:#25A5E2"/>
				<stop  offset="1" style="stop-color:#5821C1"/>
			</linearGradient>
			<path class="st3" d="M370.5,10.5c-1.6-2.2-4.1-3.5-6.8-3.7L268.6,0c-5.8-0.4-10.8,3.9-11.2,9.7c-0.4,5.8,3.9,10.8,9.7,11.2
				l67.3,4.6l-123.7,96.8L116,48.1c-4-3.2-9.8-3-13.6,0.5l-97.2,93c-4.1,3.9-4.4,10.4-0.5,14.6c1.9,2.4,4.8,3.8,7.8,3.7
				c2.8,0,5.4-1.2,7.3-3.1L110.3,70l93.5,73.7c3.8,3.1,9.2,3.1,13.1,0L350.6,39.6l-5.2,64.9c0,5.7,4.3,10.4,9.9,11h0.5
				c5.4,0,9.9-4,10.4-9.4l6.8-88.3C373.4,15.1,372.5,12.3,370.5,10.5z"/>
		</g>
	</g>
</g>
</svg>
