<?xml version="1.0" encoding="utf-8"?>
<!-- Generator: Adobe Illustrator 23.0.1, SVG Export Plug-In . SVG Version: 6.00 Build 0)  -->
<svg version="1.1" id="Capa_1" xmlns="http://www.w3.org/2000/svg" xmlns:xlink="http://www.w3.org/1999/xlink" x="0px" y="0px"
	 viewBox="0 0 512 512" style="enable-background:new 0 0 512 512;" xml:space="preserve">
<style type="text/css">
	.st0{fill:url(#SVGID_1_);}
	.st1{fill:url(#SVGID_2_);}
	.st2{fill:url(#SVGID_3_);}
	.st3{fill:url(#SVGID_4_);}
	.st4{fill:url(#SVGID_5_);}
	.st5{fill:url(#SVGID_6_);}
	.st6{fill:url(#SVGID_7_);}
	.st7{fill:url(#SVGID_8_);}
	.st8{fill:url(#SVGID_9_);}
	.st9{fill:url(#SVGID_10_);}
</style>
<g>
	<linearGradient id="SVGID_1_" gradientUnits="userSpaceOnUse" x1="256" y1="41.8579" x2="256" y2="470.1432">
		<stop  offset="0" style="stop-color:#25A5E2"/>
		<stop  offset="1" style="stop-color:#5A1DC0"/>
	</linearGradient>
	<path class="st0" d="M499.3,88.2h-40.5c-4.1,0-7.5,3.4-7.5,7.5s3.4,7.5,7.5,7.5H497v288.5H86.3v-19.8c0-4.1-3.4-7.5-7.5-7.5
		s-7.5,3.4-7.5,7.5v83.3h-15V79.3c0-4.1-3.4-7.5-7.5-7.5H15v-15h48.8c4.1,0,7.5,3.4,7.5,7.5V340c0,4.1,3.4,7.5,7.5,7.5
		s7.5-3.4,7.5-7.5V103.1h143c1.9,0,3.8-0.8,5.2-2.1l28.9-27.9h75.8v22.5c0,4.1,3.4,7.5,7.5,7.5h80.2c4.1,0,7.5-3.4,7.5-7.5
		s-3.4-7.5-7.5-7.5h-72.7V70.2c0-6.6-5.4-12.1-12.1-12.1h-79.9c-3.1,0-6.1,1.2-8.4,3.4l-27.6,26.6h-140V64.3
		c0-12.4-10.1-22.5-22.5-22.5H10.3C4.6,41.9,0,46.5,0,52.2v24.2c0,5.7,4.6,10.3,10.3,10.3h31v369c0,7.9,6.5,14.4,14.4,14.4h16.2
		c7.9,0,14.4-6.5,14.4-14.4v-49.2H144v26.7c0,6.4,5.2,11.7,11.7,11.7h280.4c6.4,0,11.7-5.2,11.7-11.7v-26.7h51.5
		c7,0,12.7-5.7,12.7-12.7v-293C512,93.9,506.3,88.2,499.3,88.2L499.3,88.2z M231.2,406.6h21.1V430h-21.1V406.6z M216.2,430h-21.1
		v-23.4h21.1V430z M267.3,406.6h21.1V430h-21.1V406.6z M303.4,406.6h21.1V430h-21.1V406.6z M339.5,406.6h21.1V430h-21.1V406.6z
		 M375.6,406.6h21.1V430h-21.1V406.6z M159,406.6h21.1V430H159V406.6z M432.8,430h-21.1v-23.4h21.1V430z"/>
	<linearGradient id="SVGID_2_" gradientUnits="userSpaceOnUse" x1="291.6544" y1="125.0145" x2="291.6544" y2="369.0373">
		<stop  offset="0" style="stop-color:#25A5E2"/>
		<stop  offset="1" style="stop-color:#5A1DC0"/>
	</linearGradient>
	<path class="st1" d="M194.4,186c-3.6-2-8.2-0.6-10.1,3c-9.6,17.7-14.6,37.7-14.6,58c0,67.3,54.7,122,122,122s122-54.7,122-122
		s-54.7-122-122-122c-33.1,0-64.1,13-87.2,36.7c-2.9,3-2.8,7.7,0.1,10.6c3,2.9,7.7,2.8,10.6-0.1c20.3-20.8,47.5-32.2,76.5-32.2
		c59,0,107,48,107,107s-48,107-107,107s-107-48-107-107c0-17.7,4.4-35.3,12.8-50.8C199.4,192.6,198,188,194.4,186L194.4,186z"/>
	<linearGradient id="SVGID_3_" gradientUnits="userSpaceOnUse" x1="291.6544" y1="158.8433" x2="291.6544" y2="335.2085">
		<stop  offset="0" style="stop-color:#25A5E2"/>
		<stop  offset="1" style="stop-color:#5A1DC0"/>
	</linearGradient>
	<path class="st2" d="M291.7,335.2c48.6,0,88.2-39.6,88.2-88.2s-39.6-88.2-88.2-88.2s-88.2,39.6-88.2,88.2S243,335.2,291.7,335.2z
		 M291.7,173.8c40.4,0,73.2,32.8,73.2,73.2s-32.8,73.2-73.2,73.2s-73.2-32.8-73.2-73.2S251.3,173.8,291.7,173.8L291.7,173.8z"/>
	<linearGradient id="SVGID_4_" gradientUnits="userSpaceOnUse" x1="292.1775" y1="184.8595" x2="292.1775" y2="309.2271">
		<stop  offset="0" style="stop-color:#25A5E2"/>
		<stop  offset="1" style="stop-color:#5A1DC0"/>
	</linearGradient>
	<path class="st3" d="M262,284.4h-1.9c-4.1,0-7.5,3.4-7.5,7.5c0,4.1,3.4,7.5,7.5,7.5h7.2v2.4c0,4.1,3.4,7.5,7.5,7.5
		c4.1,0,7.5-3.4,7.5-7.5v-2.5c3.1,0,6.3,0,9.3,0v2.5c0,4.1,3.4,7.5,7.5,7.5c4.1,0,7.5-3.4,7.5-7.5v-3.2c14.4-3,25.2-15.7,25.2-31
		c0-11.2-5.9-21.1-14.7-26.7c4.1-4.9,6.6-11.2,6.6-18.1c0-11.6-7.1-21.6-17.1-25.9v-4.6c0-4.1-3.4-7.5-7.5-7.5
		c-4.1,0-7.5,3.4-7.5,7.5v2.4h-9.3v-2.4c0-4.1-3.4-7.5-7.5-7.5c-4.1,0-7.5,3.4-7.5,7.5v2.4h-7.2c-4.1,0-7.5,3.4-7.5,7.5
		c0,4.1,3.4,7.5,7.5,7.5h1.9L262,284.4L262,284.4z M300.1,284.3c-4.2,0-15.5,0-23.1,0.1V251c2.8,0,23.1,0,23.1,0
		c9.2,0,16.6,7.5,16.6,16.6S309.3,284.3,300.1,284.3L300.1,284.3z M295.6,236c-1.9,0-18.6,0-18.6,0v-26.3h18.6
		c7.2,0,13.1,5.9,13.1,13.1C308.7,230.1,302.8,236,295.6,236z"/>
	<linearGradient id="SVGID_5_" gradientUnits="userSpaceOnUse" x1="125.07" y1="149.8567" x2="125.07" y2="164.8327">
		<stop  offset="0" style="stop-color:#25A5E2"/>
		<stop  offset="1" style="stop-color:#5A1DC0"/>
	</linearGradient>
	<path class="st4" d="M139.2,149.9H111c-4.1,0-7.5,3.4-7.5,7.5c0,4.1,3.4,7.5,7.5,7.5h28.2c4.1,0,7.5-3.4,7.5-7.5
		C146.6,153.2,143.3,149.9,139.2,149.9z"/>
	<linearGradient id="SVGID_6_" gradientUnits="userSpaceOnUse" x1="125.07" y1="183.1254" x2="125.07" y2="198.1013">
		<stop  offset="0" style="stop-color:#25A5E2"/>
		<stop  offset="1" style="stop-color:#5A1DC0"/>
	</linearGradient>
	<path class="st5" d="M139.2,183.1H111c-4.1,0-7.5,3.4-7.5,7.5c0,4.1,3.4,7.5,7.5,7.5h28.2c4.1,0,7.5-3.4,7.5-7.5
		C146.6,186.5,143.3,183.1,139.2,183.1z"/>
	<linearGradient id="SVGID_7_" gradientUnits="userSpaceOnUse" x1="125.07" y1="216.394" x2="125.07" y2="231.37">
		<stop  offset="0" style="stop-color:#25A5E2"/>
		<stop  offset="1" style="stop-color:#5A1DC0"/>
	</linearGradient>
	<path class="st6" d="M139.2,216.4H111c-4.1,0-7.5,3.4-7.5,7.5c0,4.1,3.4,7.5,7.5,7.5h28.2c4.1,0,7.5-3.4,7.5-7.5
		C146.6,219.7,143.3,216.4,139.2,216.4z"/>
	<linearGradient id="SVGID_8_" gradientUnits="userSpaceOnUse" x1="125.07" y1="249.6627" x2="125.07" y2="264.6386">
		<stop  offset="0" style="stop-color:#25A5E2"/>
		<stop  offset="1" style="stop-color:#5A1DC0"/>
	</linearGradient>
	<path class="st7" d="M139.2,249.7H111c-4.1,0-7.5,3.4-7.5,7.5c0,4.1,3.4,7.5,7.5,7.5h28.2c4.1,0,7.5-3.4,7.5-7.5
		C146.6,253,143.3,249.7,139.2,249.7L139.2,249.7z"/>
	<linearGradient id="SVGID_9_" gradientUnits="userSpaceOnUse" x1="125.07" y1="282.9313" x2="125.07" y2="297.9073">
		<stop  offset="0" style="stop-color:#25A5E2"/>
		<stop  offset="1" style="stop-color:#5A1DC0"/>
	</linearGradient>
	<path class="st8" d="M139.2,282.9H111c-4.1,0-7.5,3.4-7.5,7.5c0,4.1,3.4,7.5,7.5,7.5h28.2c4.1,0,7.5-3.4,7.5-7.5
		C146.6,286.3,143.3,282.9,139.2,282.9z"/>
	<linearGradient id="SVGID_10_" gradientUnits="userSpaceOnUse" x1="125.07" y1="316.2" x2="125.07" y2="331.176">
		<stop  offset="0" style="stop-color:#25A5E2"/>
		<stop  offset="1" style="stop-color:#5A1DC0"/>
	</linearGradient>
	<path class="st9" d="M139.2,316.2H111c-4.1,0-7.5,3.4-7.5,7.5c0,4.1,3.4,7.5,7.5,7.5h28.2c4.1,0,7.5-3.4,7.5-7.5
		C146.6,319.6,143.3,316.2,139.2,316.2z"/>
</g>
</svg>
