<?xml version="1.0" encoding="utf-8"?>
<!-- Generator: Adobe Illustrator 23.0.1, SVG Export Plug-In . SVG Version: 6.00 Build 0)  -->
<svg version="1.1" id="Capa_1" xmlns="http://www.w3.org/2000/svg" xmlns:xlink="http://www.w3.org/1999/xlink" x="0px" y="0px"
	 viewBox="0 0 512 512" style="enable-background:new 0 0 512 512;" xml:space="preserve">
<style type="text/css">
	.st0{fill:url(#SVGID_1_);}
	.st1{fill:url(#SVGID_2_);}
	.st2{fill:url(#SVGID_3_);}
</style>
<g>
	<linearGradient id="SVGID_1_" gradientUnits="userSpaceOnUse" x1="256" y1="39.36" x2="256" y2="472.64">
		<stop  offset="0" style="stop-color:#279EE1"/>
		<stop  offset="1" style="stop-color:#5821C1"/>
	</linearGradient>
	<path class="st0" d="M488.3,236.6C473,221.4,452.7,213,431.2,213h-7.6c0.1-2,0.1-4,0.1-5.9c0-92.4-75.2-167.7-167.7-167.7
		c-74.1,0-139.4,48.8-160.6,119.3c-10.7,1.3-21.2,4.1-31,8.5c-3.8,1.7-5.5,6.1-3.8,9.9c1.7,3.8,6.1,5.5,9.9,3.8
		c9.9-4.4,20.4-7,31.3-7.8c3.2-0.2,5.9-2.5,6.7-5.6C126.3,100.9,186.9,54.4,256,54.4c84.2,0,152.7,68.5,152.7,152.7
		c0,4.2-0.2,8.5-0.5,12.8c-0.2,2.1,0.5,4.2,2,5.7c1.4,1.5,3.4,2.4,5.5,2.4h15.6c17.6,0,34.1,6.8,46.6,19.3
		c12.4,12.4,19.3,29,19.3,46.6c0,36.3-29.5,65.9-65.9,65.9h-53.3c0.2-3,0.3-6.1,0.3-9.2c0-51.3-31.8-95.3-76.7-113.4v-35.7L321,182
		c4.2,2.5,9.2,3.9,14.4,3.9c15.9,0,28.9-13,28.9-28.9s-13-28.9-28.9-28.9s-28.9,13-28.9,28.9c0,5.3,1.4,10.2,3.9,14.4L288.7,193
		c-1.4,1.4-2.2,3.3-2.2,5.3v33.8c-7.4-1.9-15.1-3.1-23-3.6v-77.3c12.3-3.3,21.4-14.6,21.4-27.9c0-15.9-13-28.9-28.9-28.9
		s-28.9,13-28.9,28.9c0,13.3,9.1,24.6,21.4,27.9v77.3c-7.9,0.5-15.6,1.7-23,3.6v-33.8c0-2-0.8-3.9-2.2-5.3l-21.7-21.7
		c2.5-4.2,3.9-9.2,3.9-14.4c0-15.9-13-28.9-28.9-28.9s-28.9,13-28.9,28.9s13,28.9,28.9,28.9c5.2,0,10.2-1.4,14.4-3.9l19.5,19.5v35.7
		c-44.9,18.1-76.7,62.1-76.7,113.4c0,3.1,0.1,6.2,0.3,9.2h-25.8c-24.9,0-48.4-9.7-66-27.4c-17.6-17.6-27.3-41.1-27.3-66
		c0-27,11.7-52.7,32.1-70.5c3.1-2.7,3.5-7.5,0.7-10.6c-2.7-3.1-7.5-3.5-10.6-0.7C13.6,205.1,0,234.9,0,266.3
		c0,28.9,11.3,56.2,31.7,76.6c20.5,20.5,47.7,31.7,76.6,31.7h27.9c11.3,55.8,60.7,98,119.8,98s108.5-42.2,119.8-98h55.4
		c44.6,0,80.9-36.3,80.9-80.9C512,272.2,503.6,251.9,488.3,236.6L488.3,236.6z M335.4,143.1c7.7,0,13.9,6.2,13.9,13.9
		s-6.2,13.9-13.9,13.9s-13.9-6.2-13.9-13.9S327.7,143.1,335.4,143.1z M162.7,157c0-7.7,6.2-13.9,13.9-13.9s13.9,6.2,13.9,13.9
		s-6.2,13.9-13.9,13.9S162.7,164.6,162.7,157z M242.1,123.4c0-7.7,6.2-13.9,13.9-13.9s13.9,6.2,13.9,13.9s-6.2,13.9-13.9,13.9
		S242.1,131,242.1,123.4L242.1,123.4z M256,457.6c-59.1,0-107.2-48.1-107.2-107.2S196.9,243.3,256,243.3s107.2,48.1,107.2,107.2
		S315.1,457.6,256,457.6z"/>
	<linearGradient id="SVGID_2_" gradientUnits="userSpaceOnUse" x1="255.999" y1="257.79" x2="255.999" y2="443.16">
		<stop  offset="0" style="stop-color:#279EE1"/>
		<stop  offset="1" style="stop-color:#5821C1"/>
	</linearGradient>
	<path class="st1" d="M256,257.8c-51.1,0-92.7,41.6-92.7,92.7c0,51.1,41.6,92.7,92.7,92.7c18.4,0,36.3-5.4,51.5-15.6
		c3.4-2.3,4.4-7,2.1-10.4c-2.3-3.4-7-4.4-10.4-2.1c-12.8,8.6-27.7,13.1-43.2,13.1c-42.8,0-77.7-34.8-77.7-77.7
		c0-42.8,34.8-77.7,77.7-77.7s77.7,34.9,77.7,77.7c0,16.6-5.2,32.5-15,45.8c-2.4,3.3-1.7,8,1.6,10.5s8,1.7,10.5-1.6
		c11.7-16,17.9-34.9,17.9-54.7C348.7,299.4,307.1,257.8,256,257.8L256,257.8z"/>
	<linearGradient id="SVGID_3_" gradientUnits="userSpaceOnUse" x1="257.307" y1="286.37" x2="257.307" y2="414.583">
		<stop  offset="0" style="stop-color:#279EE1"/>
		<stop  offset="1" style="stop-color:#5821C1"/>
	</linearGradient>
	<path class="st2" d="M264.9,414.6c4.1,0,7.5-3.4,7.5-7.5v-11.5h0.1c15.6,0,28.4-12.7,28.4-28.4c0-10.9-6.2-20.4-15.2-25.1
		c2.2-3.6,3.5-7.9,3.5-12.5c0-10.7-7-19.9-16.7-23v-12.7c0-4.1-3.4-7.5-7.5-7.5s-7.5,3.4-7.5,7.5v11.5h-7v-11.5
		c0-4.1-3.4-7.5-7.5-7.5s-7.5,3.4-7.5,7.5v11.5h-1.1h-13c-4.1,0-7.5,3.4-7.5,7.5s3.4,7.5,7.5,7.5h5.5v60.2h-5.5
		c-4.1,0-7.5,3.4-7.5,7.5s3.4,7.5,7.5,7.5h13h1.1v11.5c0,4.1,3.4,7.5,7.5,7.5s7.5-3.4,7.5-7.5v-11.5h7v11.5
		C257.4,411.2,260.7,414.6,264.9,414.6z M272.5,380.6h-30.7v-26.8h23.1h7.6c7.4,0,13.4,6,13.4,13.4S279.9,380.6,272.5,380.6z
		 M264.9,338.8h-23.1v-18.4h23.1c5.1,0,9.2,4.1,9.2,9.2S269.9,338.8,264.9,338.8L264.9,338.8z"/>
</g>
</svg>
