<?xml version="1.0" encoding="utf-8"?>
<!-- Generator: Adobe Illustrator 23.0.1, SVG Export Plug-In . SVG Version: 6.00 Build 0)  -->
<svg version="1.1" id="Layer_5" xmlns="http://www.w3.org/2000/svg" xmlns:xlink="http://www.w3.org/1999/xlink" x="0px" y="0px"
	 viewBox="0 0 512 512" style="enable-background:new 0 0 512 512;" xml:space="preserve">
<style type="text/css">
	.st0{fill:url(#SVGID_1_);}
	.st1{fill:url(#SVGID_2_);}
	.st2{fill:url(#SVGID_3_);}
	.st3{fill:url(#SVGID_4_);}
	.st4{fill:url(#SVGID_5_);}
</style>
<g>
	<linearGradient id="SVGID_1_" gradientUnits="userSpaceOnUse" x1="256" y1="8" x2="256" y2="504">
		<stop  offset="0" style="stop-color:#279EE1"/>
		<stop  offset="1" style="stop-color:#5A1EC0"/>
	</linearGradient>
	<path class="st0" d="M495,99.3c5.7-4.8,9-11.8,9-19.3s-3.3-14.5-9-19.3l-55-45.8V48h-96c0-22.1-17.9-40-40-40H48
		C25.9,8,8,25.9,8,48v368c0,22.1,17.9,40,40,40h45.6c1.6,3.4,3.4,6.6,5.6,9.6l12.8,17.1V504h144v-21.3l12.8-17.1
		c2.2-3,4-6.2,5.6-9.6H304c22.1,0,40-17.9,40-40h96v33.1l55-45.8c5.7-4.8,9-11.8,9-19.3s-3.3-14.5-9-19.3L441.3,320H504V144h-62.7
		L495,99.3z M264,432c0,8.6-2.8,17.1-8,24l-16,21.3V488H128v-10.7L112,456c-5.2-6.9-8-15.4-8-24v-36.7c0-8.6-2-17.3-5.9-25
		l-9.6-19.1c-0.4-0.7-0.5-1.4-0.5-2.2c0-2.7,2.2-4.9,4.9-4.9c23.7,0,43.1,19.3,43.1,43.1v12.6V416h16v-16.3v-12.6V256
		c0-4.4,3.6-8,8-8s8,3.6,8,8v80v32h16v-32c0-4.4,3.6-8,8-8s8,3.6,8,8v8v24h16v-24c0-4.4,3.6-8,8-8s8,3.6,8,8v8v16h16v-16
		c0-4.4,3.6-8,8-8c4.4,0,8,3.6,8,8V432z M264,168H88v-8c0-4.4,3.6-8,8-8h160c4.4,0,8,3.6,8,8V168z M88,184h176v16H88V184z M88,216
		h176v40c0,4.4-3.6,8-8,8h-72v-8c0-13.2-10.8-24-24-24s-24,10.8-24,24v8H96c-4.4,0-8-3.6-8-8V216z M256,328c-4.3,0-8.3,1.2-11.8,3.2
		C240,324.5,232.5,320,224,320c-4.3,0-8.3,1.2-11.8,3.2C208,316.5,200.5,312,192,312c-2.8,0-5.5,0.6-8,1.5V280h72
		c13.2,0,24-10.8,24-24v-96c0-13.2-10.8-24-24-24H96c-13.2,0-24,10.8-24,24v96c0,13.2,10.8,24,24,24h40v66.8
		c-10.8-11.5-26.1-18.8-43.1-18.8c-11.5,0-20.9,9.4-20.9,20.9c0,3.2,0.8,6.5,2.2,9.4L83,376H56V56h49.8l3.5,13.8
		c2.7,10.7,12.2,18.2,23.3,18.2h87c11,0,20.6-7.5,23.3-18.2l3.5-13.8H296v320h-16v-24C280,338.8,269.2,328,256,328z M328,416
		c0,13.2-10.8,24-24,24h-24.7c0.4-2.6,0.7-5.3,0.7-8v-40h16c8.8,0,16-7.2,16-16V56c0-8.8-7.2-16-16-16h-62.2l-6.5,25.9
		c-0.9,3.6-4.1,6.1-7.8,6.1h-87c-3.7,0-6.9-2.5-7.8-6.1L118.2,40H56c-8.8,0-16,7.2-16,16v320c0,8.8,7.2,16,16,16h31.8
		c0.1,1.1,0.2,2.2,0.2,3.3V432c0,2.7,0.3,5.4,0.7,8H48c-13.2,0-24-10.8-24-24V48c0-13.2,10.8-24,24-24h256c13.2,0,24,10.8,24,24V416
		z M376,288v-17.2c9.2-2.9,16-11.5,16-21.7c0-8.7-4.8-16.5-12.6-20.4l-15.6-7.8c-2.3-1.2-3.8-3.5-3.8-6.1c0-3.8,3.1-6.8,6.8-6.8h2.3
		c3.8,0,6.8,3.1,6.8,6.8v9.2h16v-9.2c0-10.2-6.8-18.8-16-21.7V176h-16v17.2c-9.2,2.9-16,11.5-16,21.7c0,8.7,4.8,16.5,12.6,20.4
		l15.6,7.8c2.3,1.2,3.8,3.5,3.8,6.1c0,3.8-3.1,6.8-6.8,6.8h-2.3c-3.8,0-6.8-3.1-6.8-6.8V240h-16v-25.2V160h16c39.7,0,72,32.3,72,72
		s-32.3,72-72,72h-16v-54.8c0,10.2,6.8,18.8,16,21.7V288H376z M344,144v-32h96v32H344z M456,64V49.1L484.7,73c2.1,1.7,3.3,4.3,3.3,7
		s-1.2,5.2-3.3,7L456,110.9V96H344V64H456z M456,353.1l28.7,23.9c2.1,1.7,3.3,4.3,3.3,7s-1.2,5.2-3.3,7L456,414.9V400H344v-32h112
		V353.1z M440,352h-96v-32h96V352z M488,304h-77.6c22.7-15.9,37.6-42.2,37.6-72s-14.9-56.1-37.6-72H488V304z"/>
	<linearGradient id="SVGID_2_" gradientUnits="userSpaceOnUse" x1="240" y1="232" x2="240" y2="248">
		<stop  offset="0" style="stop-color:#279EE1"/>
		<stop  offset="1" style="stop-color:#5A1EC0"/>
	</linearGradient>
	<path class="st1" d="M232,232h16v16h-16V232z"/>
	<linearGradient id="SVGID_3_" gradientUnits="userSpaceOnUse" x1="208" y1="232" x2="208" y2="248">
		<stop  offset="0" style="stop-color:#279EE1"/>
		<stop  offset="1" style="stop-color:#5A1EC0"/>
	</linearGradient>
	<path class="st2" d="M200,232h16v16h-16V232z"/>
	<linearGradient id="SVGID_4_" gradientUnits="userSpaceOnUse" x1="144" y1="40" x2="144" y2="56">
		<stop  offset="0" style="stop-color:#279EE1"/>
		<stop  offset="1" style="stop-color:#5A1EC0"/>
	</linearGradient>
	<circle class="st3" cx="144" cy="48" r="8"/>
	<linearGradient id="SVGID_5_" gradientUnits="userSpaceOnUse" x1="192" y1="40" x2="192" y2="56">
		<stop  offset="0" style="stop-color:#279EE1"/>
		<stop  offset="1" style="stop-color:#5A1EC0"/>
	</linearGradient>
	<path class="st4" d="M168,40h48v16h-48V40z"/>
</g>
</svg>
