<?xml version="1.0" encoding="utf-8"?>
<!-- Generator: Adobe Illustrator 23.0.1, SVG Export Plug-In . SVG Version: 6.00 Build 0)  -->
<svg version="1.1" id="Layer_1" xmlns="http://www.w3.org/2000/svg" xmlns:xlink="http://www.w3.org/1999/xlink" x="0px" y="0px"
	 viewBox="0 0 512 512" style="enable-background:new 0 0 512 512;" xml:space="preserve">
<style type="text/css">
	.st0{fill:url(#SVGID_1_);}
	.st1{fill:url(#SVGID_2_);}
	.st2{fill:url(#SVGID_3_);}
</style>
<linearGradient id="SVGID_1_" gradientUnits="userSpaceOnUse" x1="256.0005" y1="91.8243" x2="256.0005" y2="498.2227">
	<stop  offset="0" style="stop-color:#279EE1"/>
	<stop  offset="1" style="stop-color:#5A1EC0"/>
</linearGradient>
<path class="st0" d="M506.9,273l-12.3-12.2c-13.5-13.5-35.4-13.5-48.9,0L415,291.6v-9.5c4.8,0,8.6-3.9,8.6-8.6v-34.6
	c0-4.8-3.9-8.6-8.6-8.6v-25.9c0-4.8-3.9-8.6-8.6-8.6H268.1c-4.8,0-8.6,3.9-8.6,8.6v34.6c0,4.8,3.9,8.6,8.6,8.6v17.3
	c-4.8,0-8.6,3.9-8.6,8.6v25.9h-8.6v-25.9c0-4.8-3.9-8.6-8.6-8.6v-17.3c4.8,0,8.6-3.9,8.6-8.6v-25.9c4.8,0,8.6-3.9,8.6-8.6v-34.6
	c0-4.8-3.9-8.6-8.6-8.6h-8.6v-17.3c4.8,0,8.6-3.9,8.6-8.6v-34.6c0-4.8-3.9-8.6-8.6-8.6H103.8c-4.8,0-8.6,3.9-8.6,8.6v25.9
	c-4.8,0-8.6,3.9-8.6,8.6v34.6c0,4.8,3.9,8.6,8.6,8.6h8.6v17.3c-4.8,0-8.6,3.9-8.6,8.6v25.9c-4.8,0-8.6,3.9-8.6,8.6v34.6
	c0,4.8,3.9,8.6,8.6,8.6V308c0,3.6,2.3,6.8,5.7,8l-14.3,14.3v-13.7c0-4.8-3.9-8.6-8.6-8.6H8.6c-4.8,0-8.6,3.9-8.6,8.6v172.9
	c0,4.8,3.9,8.6,8.6,8.6h69.2c4.8,0,8.6-3.9,8.6-8.6v-13.7l38.2-38.2h238.5c2.3,0,4.5-0.9,6.1-2.5l137.6-137.6
	C513.7,290.7,513.7,279.8,506.9,273L506.9,273z M370.2,316.6H390l-18.2,18.2v-9.5C371.8,322.3,371.2,319.4,370.2,316.6z
	 M276.7,212.9h121.1v17.3H276.7V212.9z M285.3,247.5h121.1v17.3H285.3V247.5z M276.7,282.1h121.1v17.3H276.7V282.1z M224.8,264.8
	H103.8v-17.3h121.1V264.8z M224.8,161H103.8v-17.3h121.1V161z M112.4,109.1h121.1v17.3H112.4V109.1z M121.1,178.3h121.1v17.3H121.1
	V178.3z M112.4,212.9h121.1v17.3H112.4V212.9z M233.5,282.1v17.3H112.4v-17.3H233.5z M69.2,480.9H17.3V325.3h51.9V480.9z
	 M359.6,420.4H121.1c-2.3,0-4.5,0.9-6.1,2.5l-28.5,28.5v-96.6l38.2-38.2h221.2c4.8,0,8.6,3.9,8.6,8.6v25.9H242.1v17.3h121.1
	c4.8,0,8.6-3.9,8.6-8.6L458,273c6.8-6.8,17.7-6.8,24.5,0l12.3,12.2L359.6,420.4z"/>
<linearGradient id="SVGID_2_" gradientUnits="userSpaceOnUse" x1="363.168" y1="91.8223" x2="415.0469" y2="91.8223">
	<stop  offset="0" style="stop-color:#279EE1"/>
	<stop  offset="1" style="stop-color:#5A1EC0"/>
</linearGradient>
<path class="st1" d="M389.1,117.8c-4.8,0-8.6-3.9-8.6-8.6h-17.3c0,11,7,20.7,17.3,24.3v10.2h17.3v-10.2c13.5-4.7,20.6-19.5,15.8-33
	c-3.7-10.4-13.5-17.3-24.5-17.3c-4.8,0-8.6-3.9-8.6-8.6c0-4.8,3.9-8.6,8.6-8.6c4.8,0,8.6,3.9,8.6,8.6H415c0-11-7-20.7-17.3-24.3
	V39.9h-17.3v10.2c-13.5,4.7-20.6,19.5-15.8,33c3.7,10.4,13.5,17.3,24.5,17.3c4.8,0,8.6,3.9,8.6,8.6
	C397.8,113.9,393.9,117.8,389.1,117.8z"/>
<linearGradient id="SVGID_3_" gradientUnits="userSpaceOnUse" x1="389.1074" y1="14.0001" x2="389.1074" y2="169.6446">
	<stop  offset="0" style="stop-color:#279EE1"/>
	<stop  offset="1" style="stop-color:#5A1EC0"/>
</linearGradient>
<path class="st2" d="M389.1,169.6c43,0,77.8-34.8,77.8-77.8c0-43-34.8-77.8-77.8-77.8c-43,0-77.8,34.8-77.8,77.8
	C311.3,134.8,346.1,169.6,389.1,169.6z M389.1,31.3c33.4,0,60.5,27.1,60.5,60.5c0,33.4-27.1,60.5-60.5,60.5
	c-33.4,0-60.5-27.1-60.5-60.5C328.6,58.4,355.7,31.3,389.1,31.3z"/>
</svg>
