<?xml version="1.0" encoding="utf-8"?>
<!-- Generator: Adobe Illustrator 23.0.1, SVG Export Plug-In . SVG Version: 6.00 Build 0)  -->
<svg version="1.1" id="light" xmlns="http://www.w3.org/2000/svg" xmlns:xlink="http://www.w3.org/1999/xlink" x="0px" y="0px"
	 viewBox="0 0 512 512" style="enable-background:new 0 0 512 512;" xml:space="preserve">
<style type="text/css">
	.st0{fill:url(#SVGID_1_);}
	.st1{fill:url(#SVGID_2_);}
	.st2{fill:url(#SVGID_3_);}
	.st3{fill:url(#SVGID_4_);}
	.st4{fill:url(#SVGID_5_);}
	.st5{fill:url(#SVGID_6_);}
</style>
<linearGradient id="SVGID_1_" gradientUnits="userSpaceOnUse" x1="373.3333" y1="234.6667" x2="373.3333" y2="512">
	<stop  offset="0" style="stop-color:#279EE1"/>
	<stop  offset="1" style="stop-color:#5A1EC0"/>
</linearGradient>
<path class="st0" d="M373.3,512c-76.5,0-138.7-62.2-138.7-138.7s62.2-138.7,138.7-138.7S512,296.9,512,373.3S449.8,512,373.3,512z
	 M373.3,256C308.6,256,256,308.6,256,373.3s52.6,117.3,117.3,117.3S490.7,438,490.7,373.3S438,256,373.3,256z"/>
<linearGradient id="SVGID_2_" gradientUnits="userSpaceOnUse" x1="367.9958" y1="319.9871" x2="367.9958" y2="426.6667">
	<stop  offset="0" style="stop-color:#279EE1"/>
	<stop  offset="1" style="stop-color:#5A1EC0"/>
</linearGradient>
<path class="st1" d="M352,426.7c-2.8,0-5.5-1.1-7.6-3.1l-42.7-42.7c-4.2-4.2-4.2-10.9,0-15.1s10.9-4.2,15.1,0l34.6,34.6l67.2-76.8
	c3.9-4.5,10.6-4.9,15.1-1c4.4,3.9,4.9,10.6,1,15.1L360,423c-1.9,2.2-4.7,3.5-7.7,3.6C352.2,426.7,352.1,426.7,352,426.7z"/>
<linearGradient id="SVGID_3_" gradientUnits="userSpaceOnUse" x1="170.6667" y1="0" x2="170.6667" y2="448">
	<stop  offset="0" style="stop-color:#279EE1"/>
	<stop  offset="1" style="stop-color:#5A1EC0"/>
</linearGradient>
<path class="st2" d="M181.3,448h-128C23.9,448,0,424.1,0,394.7V53.3C0,23.9,23.9,0,53.3,0H288c29.4,0,53.3,23.9,53.3,53.3v128
	c0,5.9-4.8,10.7-10.7,10.7s-10.7-4.8-10.7-10.7v-128c0-17.6-14.4-32-32-32H53.3c-17.6,0-32,14.4-32,32v341.3c0,17.6,14.4,32,32,32
	h128c5.9,0,10.7,4.8,10.7,10.7S187.2,448,181.3,448z"/>
<linearGradient id="SVGID_4_" gradientUnits="userSpaceOnUse" x1="234.6667" y1="106.6667" x2="234.6667" y2="296.32">
	<stop  offset="0" style="stop-color:#279EE1"/>
	<stop  offset="1" style="stop-color:#5A1EC0"/>
</linearGradient>
<path class="st3" d="M202.7,296.3c-5.9,0-10.7-4.8-10.7-10.7V117.3c0-5.9,4.8-10.7,10.7-10.7h64c5.9,0,10.7,4.8,10.7,10.7v96.4
	c0,5.9-4.8,10.7-10.7,10.7s-10.7-4.8-10.7-10.7V128h-42.7v157.7C213.3,291.6,208.6,296.3,202.7,296.3z"/>
<linearGradient id="SVGID_5_" gradientUnits="userSpaceOnUse" x1="106.6667" y1="192" x2="106.6667" y2="320">
	<stop  offset="0" style="stop-color:#279EE1"/>
	<stop  offset="1" style="stop-color:#5A1EC0"/>
</linearGradient>
<path class="st4" d="M138.7,320h-64c-5.9,0-10.7-4.8-10.7-10.7V202.7c0-5.9,4.8-10.7,10.7-10.7h64c5.9,0,10.7,4.8,10.7,10.7v106.7
	C149.3,315.2,144.6,320,138.7,320z M85.3,298.7H128v-85.3H85.3V298.7z"/>
<linearGradient id="SVGID_6_" gradientUnits="userSpaceOnUse" x1="122.88" y1="298.6667" x2="122.88" y2="320">
	<stop  offset="0" style="stop-color:#279EE1"/>
	<stop  offset="1" style="stop-color:#5A1EC0"/>
</linearGradient>
<path class="st5" d="M192.4,320H53.3c-5.9,0-10.7-4.8-10.7-10.7s4.8-10.7,10.7-10.7h139.1c5.9,0,10.7,4.8,10.7,10.7
	S198.3,320,192.4,320z"/>
</svg>
